<?xml version="1.0" encoding="UTF-8" standalone="no"?>
<!DOCTYPE svg PUBLIC "-//W3C//DTD SVG 1.1//EN" "http://www.w3.org/Graphics/SVG/1.1/DTD/svg11.dtd">
<svg version="1.1" xmlns="http://www.w3.org/2000/svg" xmlns:xlink="http://www.w3.org/1999/xlink" preserveAspectRatio="xMidYMid meet" viewBox="0 0 640 640" width="640" height="640"><defs><path d="M456.66 249.69L460.77 249.95L464.88 250.28L470.95 250.93L476.83 251.73L482.53 252.67L488.05 253.73L493.4 254.91L498.58 256.21L503.61 257.61L508.47 259.1L513.19 260.68L517.76 262.34L522.2 264.07L526.51 265.85L530.69 267.69L534.74 269.58L538.69 271.49L542.53 273.44L546.26 275.4L549.89 277.37L553.44 279.35L556.9 281.31L560.28 283.26L563.58 285.18L566.82 287.08L570 288.93L573.12 290.72L576.18 292.46L579.21 294.14L582.19 295.73L585.14 297.25L588.06 298.67L590.97 299.98L593.85 301.19L596.72 302.28L599.6 303.24L602.47 304.07L605.35 304.75L608.24 305.28L611.15 305.65L614.08 305.85L617.05 305.87L323.64 305.87L320.15 306.92L315.39 307.84L310.28 308.34L304.81 308.42L298.98 308.09L292.8 307.35L292.89 307.34L5.64 307.34L9.37 304.57L13.1 301.88L16.84 299.27L20.58 296.73L24.32 294.28L28.07 291.9L31.82 289.6L35.58 287.38L39.33 285.24L43.09 283.18L46.86 281.2L50.62 279.3L54.39 277.47L58.16 275.73L61.94 274.06L65.72 272.47L69.5 270.96L73.29 269.53L77.08 268.18L80.87 266.9L84.67 265.71L88.46 264.59L92.27 263.55L96.07 262.59L99.88 261.71L103.69 260.91L107.51 260.19L111.32 259.55L115.14 258.98L118.97 258.5L122.8 258.09L126.63 257.76L130.46 257.51L134.3 257.34L138.14 257.25L141.98 257.23L145.83 257.3L149.68 257.44L153.53 257.66L157.39 257.96L163.09 258.54L168.6 259.25L173.95 260.08L179.13 261.02L184.15 262.08L189.01 263.23L193.72 264.47L198.29 265.8L202.71 267.2L207 268.67L211.17 270.21L215.2 271.79L219.12 273.43L222.93 275.1L226.63 276.8L230.23 278.53L233.73 280.27L237.14 282.03L240.47 283.78L243.72 285.52L246.89 287.26L249.99 288.97L253.03 290.65L256 292.29L258.93 293.89L261.81 295.43L264.64 296.92L267.44 298.34L270.21 299.68L272.95 300.94L275.67 302.11L278.38 303.18L281.08 304.15L283.77 305.01L286.46 305.74L289.16 306.35L291.88 306.82L294.41 307.12L303.15 305.87L303.12 305.87L307.09 302.75L311.07 299.72L315.06 296.78L319.05 293.93L323.04 291.16L327.03 288.49L331.03 285.9L335.03 283.41L339.04 281L343.04 278.68L347.05 276.44L351.07 274.3L355.09 272.25L359.11 270.28L363.14 268.4L367.16 266.61L371.2 264.91L375.23 263.3L379.27 261.78L383.31 260.35L387.36 259L391.41 257.74L395.46 256.58L399.52 255.5L403.58 254.51L407.64 253.6L411.7 252.79L415.77 252.07L419.85 251.43L423.92 250.88L428 250.42L432.09 250.05L436.17 249.77L440.27 249.58L444.36 249.48L448.46 249.46L452.56 249.53L456.66 249.69Z" id="bRDGFQy1q"></path><path d="M487.77 235.89L491.87 236.2L495.98 236.62L502.06 237.42L507.94 238.41L513.64 239.56L519.16 240.87L524.51 242.34L529.69 243.94L534.71 245.66L539.58 247.51L544.3 249.46L548.87 251.51L553.31 253.64L557.61 255.85L561.79 258.12L565.85 260.44L569.79 262.81L573.63 265.22L577.36 267.64L581 270.07L584.54 272.51L588 274.94L591.38 277.35L594.69 279.72L597.93 282.06L601.1 284.34L604.22 286.56L607.29 288.71L610.31 290.78L613.3 292.75L616.25 294.62L619.17 296.37L622.07 298L624.96 299.49L627.83 300.84L630.7 302.03L633.57 303.05L636.45 303.89L639.34 304.54L642.25 305L645.19 305.24L648.15 305.27L354.74 305.27L351.25 306.57L346.49 307.7L341.38 308.32L335.91 308.42L330.09 308.02L323.91 307.1L323.99 307.08L36.74 307.08L40.47 303.66L44.21 300.34L47.94 297.11L51.68 293.98L55.43 290.95L59.18 288.02L62.93 285.18L66.68 282.44L70.44 279.8L74.2 277.25L77.96 274.8L81.73 272.45L85.5 270.2L89.27 268.04L93.05 265.98L96.83 264.02L100.61 262.15L104.39 260.39L108.18 258.72L111.97 257.14L115.77 255.67L119.57 254.29L123.37 253.01L127.18 251.82L130.98 250.74L134.8 249.75L138.61 248.85L142.43 248.06L146.25 247.36L150.07 246.76L153.9 246.26L157.73 245.85L161.57 245.54L165.4 245.33L169.24 245.22L173.09 245.2L176.93 245.28L180.79 245.46L184.64 245.73L188.49 246.1L194.19 246.82L199.71 247.69L205.06 248.72L210.24 249.88L215.25 251.18L220.11 252.6L224.83 254.14L229.39 255.78L233.82 257.51L238.11 259.33L242.27 261.22L246.31 263.18L250.23 265.2L254.04 267.27L257.74 269.37L261.34 271.51L264.84 273.66L268.25 275.82L271.58 277.99L274.82 280.14L277.99 282.28L281.09 284.39L284.13 286.47L287.11 288.5L290.04 290.47L292.91 292.38L295.75 294.21L298.55 295.97L301.32 297.63L304.06 299.18L306.78 300.63L309.49 301.95L312.18 303.15L314.88 304.2L317.57 305.11L320.27 305.86L322.98 306.44L325.52 306.82L334.26 305.27L334.22 305.27L338.2 301.42L342.18 297.68L346.16 294.04L350.15 290.52L354.14 287.11L358.14 283.8L362.13 280.61L366.14 277.53L370.14 274.55L374.15 271.68L378.16 268.93L382.18 266.28L386.19 263.74L390.22 261.32L394.24 259L398.27 256.79L402.3 254.69L406.34 252.7L410.38 250.82L414.42 249.05L418.46 247.39L422.51 245.83L426.57 244.39L430.62 243.06L434.68 241.83L438.74 240.72L442.81 239.72L446.88 238.82L450.95 238.03L455.03 237.36L459.11 236.79L463.19 236.33L467.28 235.99L471.37 235.75L475.46 235.62L479.56 235.6L483.66 235.69L487.77 235.89Z" id="b17mrs99Fb"></path><path d="M445.97 241.82L450.25 242.13L454.54 242.55L460.87 243.35L467.01 244.34L472.95 245.49L478.71 246.8L484.29 248.27L489.7 249.87L494.93 251.59L500.01 253.44L504.93 255.39L509.7 257.44L514.33 259.57L518.82 261.78L523.18 264.05L527.41 266.37L531.53 268.74L535.53 271.14L539.42 273.57L543.21 276L546.91 278.44L550.52 280.87L554.05 283.28L557.49 285.65L560.87 287.99L564.18 290.27L567.44 292.49L570.64 294.64L573.79 296.71L576.9 298.68L579.98 300.55L583.03 302.3L586.05 303.93L589.06 305.42L592.06 306.77L595.05 307.96L598.05 308.98L601.05 309.82L604.07 310.47L607.1 310.93L610.16 311.17L613.26 311.2L307.22 311.2L303.58 312.5L298.62 313.63L293.28 314.25L287.58 314.35L281.5 313.95L275.06 313.03L275.15 313.01L-24.47 313.01L-20.58 309.59L-16.68 306.27L-12.78 303.04L-8.88 299.91L-4.98 296.88L-1.07 293.95L2.84 291.11L6.76 288.37L10.68 285.73L14.6 283.18L18.52 280.73L22.45 278.38L26.38 276.13L30.32 273.97L34.26 271.91L38.2 269.95L42.15 268.08L46.1 266.32L50.05 264.65L54 263.07L57.96 261.6L61.92 260.22L65.89 258.94L69.86 257.75L73.83 256.67L77.81 255.68L81.78 254.78L85.77 253.99L89.75 253.29L93.74 252.69L97.73 252.19L101.73 251.78L105.73 251.47L109.73 251.26L113.74 251.15L117.75 251.13L121.76 251.21L125.77 251.39L129.79 251.66L133.82 252.03L139.76 252.75L145.51 253.62L151.09 254.65L156.49 255.81L161.73 257.11L166.8 258.53L171.71 260.07L176.47 261.71L181.09 263.44L185.56 265.26L189.91 267.15L194.12 269.11L198.21 271.13L202.18 273.2L206.04 275.3L209.79 277.43L213.45 279.59L217 281.75L220.47 283.92L223.86 286.07L227.16 288.21L230.4 290.32L233.57 292.4L236.67 294.43L239.73 296.4L242.73 298.31L245.69 300.14L248.61 301.9L251.49 303.55L254.35 305.11L257.19 306.56L260.02 307.88L262.83 309.08L265.64 310.13L268.45 311.04L271.26 311.79L274.09 312.37L276.73 312.75L285.86 311.2L285.82 311.2L289.96 307.35L294.12 303.61L298.27 299.97L302.43 296.45L306.59 293.04L310.76 289.73L314.93 286.54L319.1 283.45L323.28 280.48L327.46 277.61L331.64 274.86L335.83 272.21L340.02 269.67L344.22 267.24L348.42 264.93L352.62 262.72L356.82 260.62L361.03 258.63L365.25 256.75L369.46 254.98L373.68 253.31L377.91 251.76L382.13 250.32L386.36 248.99L390.6 247.76L394.84 246.65L399.08 245.64L403.32 244.75L407.57 243.96L411.82 243.29L416.08 242.72L420.34 242.26L424.6 241.92L428.87 241.68L433.14 241.55L437.41 241.53L441.69 241.62L445.97 241.82Z" id="ansAlkxMb"></path></defs><g><g><g><g><filter id="shadow2484755" x="-3.36" y="240.46" width="630.41" height="77.96" filterUnits="userSpaceOnUse" primitiveUnits="userSpaceOnUse"><feFlood></feFlood><feComposite in2="SourceAlpha" operator="in"></feComposite><feGaussianBlur stdDeviation="1"></feGaussianBlur><feOffset dx="1" dy="1" result="afterOffset"></feOffset><feFlood flood-color="#ffffff" flood-opacity="0.5"></feFlood><feComposite in2="afterOffset" operator="in"></feComposite><feMorphology operator="dilate" radius="1"></feMorphology><feComposite in2="SourceAlpha" operator="out"></feComposite></filter><path d="M456.66 249.69L460.77 249.95L464.88 250.28L470.95 250.93L476.83 251.73L482.53 252.67L488.05 253.73L493.4 254.91L498.58 256.21L503.61 257.61L508.47 259.1L513.19 260.68L517.76 262.34L522.2 264.07L526.51 265.85L530.69 267.69L534.74 269.58L538.69 271.49L542.53 273.44L546.26 275.4L549.89 277.37L553.44 279.35L556.9 281.31L560.28 283.26L563.58 285.18L566.82 287.08L570 288.93L573.12 290.72L576.18 292.46L579.21 294.14L582.19 295.73L585.14 297.25L588.06 298.67L590.97 299.98L593.85 301.19L596.72 302.28L599.6 303.24L602.47 304.07L605.35 304.75L608.24 305.28L611.15 305.65L614.08 305.85L617.05 305.87L323.64 305.87L320.15 306.92L315.39 307.84L310.28 308.34L304.81 308.42L298.98 308.09L292.8 307.35L292.89 307.34L5.64 307.34L9.37 304.57L13.1 301.88L16.84 299.27L20.58 296.73L24.32 294.28L28.07 291.9L31.82 289.6L35.58 287.38L39.33 285.24L43.09 283.18L46.86 281.2L50.62 279.3L54.39 277.47L58.16 275.73L61.94 274.06L65.72 272.47L69.5 270.96L73.29 269.53L77.08 268.18L80.87 266.9L84.67 265.71L88.46 264.59L92.27 263.55L96.07 262.59L99.88 261.71L103.69 260.91L107.51 260.19L111.32 259.55L115.14 258.98L118.97 258.5L122.8 258.09L126.63 257.76L130.46 257.51L134.3 257.34L138.14 257.25L141.98 257.23L145.83 257.3L149.68 257.44L153.53 257.66L157.39 257.96L163.09 258.54L168.6 259.25L173.95 260.08L179.13 261.02L184.15 262.08L189.01 263.23L193.72 264.47L198.29 265.8L202.71 267.2L207 268.67L211.17 270.21L215.2 271.79L219.12 273.43L222.93 275.1L226.63 276.8L230.23 278.53L233.73 280.27L237.14 282.03L240.47 283.78L243.72 285.52L246.89 287.26L249.99 288.97L253.03 290.65L256 292.29L258.93 293.89L261.81 295.43L264.64 296.92L267.44 298.34L270.21 299.68L272.95 300.94L275.67 302.11L278.38 303.18L281.08 304.15L283.77 305.01L286.46 305.74L289.16 306.35L291.88 306.82L294.41 307.12L303.15 305.87L303.12 305.87L307.09 302.75L311.07 299.72L315.06 296.78L319.05 293.93L323.04 291.16L327.03 288.49L331.03 285.9L335.03 283.41L339.04 281L343.04 278.68L347.05 276.44L351.07 274.3L355.09 272.25L359.11 270.28L363.14 268.4L367.16 266.61L371.2 264.91L375.23 263.3L379.27 261.78L383.31 260.35L387.36 259L391.41 257.74L395.46 256.58L399.52 255.5L403.58 254.51L407.64 253.6L411.7 252.79L415.77 252.07L419.85 251.43L423.92 250.88L428 250.42L432.09 250.05L436.17 249.77L440.27 249.58L444.36 249.48L448.46 249.46L452.56 249.53L456.66 249.69Z" id="d47B9QUv2q" fill="white" fill-opacity="1" filter="url(#shadow2484755)"></path></g><use xlink:href="#bRDGFQy1q" opacity="1" fill="#ffffff" fill-opacity="1"></use><g><use xlink:href="#bRDGFQy1q" opacity="1" fill-opacity="0" stroke="#ffffff" stroke-width="1" stroke-opacity="1"></use></g></g><g><g><filter id="shadow316537" x="27.74" y="226.6" width="630.41" height="91.82" filterUnits="userSpaceOnUse" primitiveUnits="userSpaceOnUse"><feFlood></feFlood><feComposite in2="SourceAlpha" operator="in"></feComposite><feGaussianBlur stdDeviation="1"></feGaussianBlur><feOffset dx="1" dy="1" result="afterOffset"></feOffset><feFlood flood-color="#ffffff" flood-opacity="0.5"></feFlood><feComposite in2="afterOffset" operator="in"></feComposite><feMorphology operator="dilate" radius="1"></feMorphology><feComposite in2="SourceAlpha" operator="out"></feComposite></filter><path d="M487.77 235.89L491.87 236.2L495.98 236.62L502.06 237.42L507.94 238.41L513.64 239.56L519.16 240.87L524.51 242.34L529.69 243.94L534.71 245.66L539.58 247.51L544.3 249.46L548.87 251.51L553.31 253.64L557.61 255.85L561.79 258.12L565.85 260.44L569.79 262.81L573.63 265.22L577.36 267.64L581 270.07L584.54 272.51L588 274.94L591.38 277.35L594.69 279.72L597.93 282.06L601.1 284.34L604.22 286.56L607.29 288.71L610.31 290.78L613.3 292.75L616.25 294.62L619.17 296.37L622.07 298L624.96 299.49L627.83 300.84L630.7 302.03L633.57 303.05L636.45 303.89L639.34 304.54L642.25 305L645.19 305.24L648.15 305.27L354.74 305.27L351.25 306.57L346.49 307.7L341.38 308.32L335.91 308.42L330.09 308.02L323.91 307.1L323.99 307.08L36.74 307.08L40.47 303.66L44.21 300.34L47.94 297.11L51.68 293.98L55.43 290.95L59.18 288.02L62.93 285.18L66.68 282.44L70.44 279.8L74.2 277.25L77.96 274.8L81.73 272.45L85.5 270.2L89.27 268.04L93.05 265.98L96.83 264.02L100.61 262.15L104.39 260.39L108.18 258.72L111.97 257.14L115.77 255.67L119.57 254.29L123.37 253.01L127.18 251.82L130.98 250.74L134.8 249.75L138.61 248.85L142.43 248.06L146.25 247.36L150.07 246.76L153.9 246.26L157.73 245.85L161.57 245.54L165.4 245.33L169.24 245.22L173.09 245.2L176.93 245.28L180.79 245.46L184.64 245.73L188.49 246.1L194.19 246.82L199.71 247.69L205.06 248.72L210.24 249.88L215.25 251.18L220.11 252.6L224.83 254.14L229.39 255.78L233.82 257.51L238.11 259.33L242.27 261.22L246.31 263.18L250.23 265.2L254.04 267.27L257.74 269.37L261.34 271.51L264.84 273.66L268.25 275.82L271.58 277.99L274.82 280.14L277.99 282.28L281.09 284.39L284.13 286.47L287.11 288.5L290.04 290.47L292.91 292.38L295.75 294.21L298.55 295.97L301.32 297.63L304.06 299.18L306.78 300.63L309.49 301.95L312.18 303.15L314.88 304.2L317.57 305.11L320.27 305.86L322.98 306.44L325.52 306.82L334.26 305.27L334.22 305.27L338.2 301.42L342.18 297.68L346.16 294.04L350.15 290.52L354.14 287.11L358.14 283.8L362.13 280.61L366.14 277.53L370.14 274.55L374.15 271.68L378.16 268.93L382.18 266.28L386.19 263.74L390.22 261.32L394.24 259L398.27 256.79L402.3 254.69L406.34 252.7L410.38 250.82L414.42 249.05L418.46 247.39L422.51 245.83L426.57 244.39L430.62 243.06L434.68 241.83L438.74 240.72L442.81 239.72L446.88 238.82L450.95 238.03L455.03 237.36L459.11 236.79L463.19 236.33L467.28 235.99L471.37 235.75L475.46 235.62L479.56 235.6L483.66 235.69L487.77 235.89Z" id="bwAqA0p8M" fill="white" fill-opacity="1" filter="url(#shadow316537)"></path></g><use xlink:href="#b17mrs99Fb" opacity="0.2" fill="#ffffff" fill-opacity="1"></use><g><use xlink:href="#b17mrs99Fb" opacity="0.2" fill-opacity="0" stroke="#ffffff" stroke-width="1" stroke-opacity="1"></use></g></g><g><g><filter id="shadow353800" x="-33.47" y="232.53" width="656.73" height="91.82" filterUnits="userSpaceOnUse" primitiveUnits="userSpaceOnUse"><feFlood></feFlood><feComposite in2="SourceAlpha" operator="in"></feComposite><feGaussianBlur stdDeviation="1"></feGaussianBlur><feOffset dx="1" dy="1" result="afterOffset"></feOffset><feFlood flood-color="#ffffff" flood-opacity="0.5"></feFlood><feComposite in2="afterOffset" operator="in"></feComposite><feMorphology operator="dilate" radius="1"></feMorphology><feComposite in2="SourceAlpha" operator="out"></feComposite></filter><path d="M445.97 241.82L450.25 242.13L454.54 242.55L460.87 243.35L467.01 244.34L472.95 245.49L478.71 246.8L484.29 248.27L489.7 249.87L494.93 251.59L500.01 253.44L504.93 255.39L509.7 257.44L514.33 259.57L518.82 261.78L523.18 264.05L527.41 266.37L531.53 268.74L535.53 271.14L539.42 273.57L543.21 276L546.91 278.44L550.52 280.87L554.05 283.28L557.49 285.65L560.87 287.99L564.18 290.27L567.44 292.49L570.64 294.64L573.79 296.71L576.9 298.68L579.98 300.55L583.03 302.3L586.05 303.93L589.06 305.42L592.06 306.77L595.05 307.96L598.05 308.98L601.05 309.82L604.07 310.47L607.1 310.93L610.16 311.17L613.26 311.2L307.22 311.2L303.58 312.5L298.62 313.63L293.28 314.25L287.58 314.35L281.5 313.95L275.06 313.03L275.15 313.01L-24.47 313.01L-20.58 309.59L-16.68 306.27L-12.78 303.04L-8.88 299.91L-4.98 296.88L-1.07 293.95L2.84 291.11L6.76 288.37L10.68 285.73L14.6 283.18L18.52 280.73L22.45 278.38L26.38 276.13L30.32 273.97L34.26 271.91L38.2 269.95L42.15 268.08L46.1 266.32L50.05 264.65L54 263.07L57.96 261.6L61.92 260.22L65.89 258.94L69.86 257.75L73.83 256.67L77.81 255.68L81.78 254.78L85.77 253.99L89.75 253.29L93.74 252.69L97.73 252.19L101.73 251.78L105.73 251.47L109.73 251.26L113.74 251.15L117.75 251.13L121.76 251.21L125.77 251.39L129.79 251.66L133.82 252.03L139.76 252.75L145.51 253.62L151.09 254.65L156.49 255.81L161.73 257.11L166.8 258.53L171.71 260.07L176.47 261.71L181.09 263.44L185.56 265.26L189.91 267.15L194.12 269.11L198.21 271.13L202.18 273.2L206.04 275.3L209.79 277.43L213.45 279.59L217 281.75L220.47 283.92L223.86 286.07L227.16 288.21L230.4 290.32L233.57 292.4L236.67 294.43L239.73 296.4L242.73 298.31L245.69 300.14L248.61 301.9L251.49 303.55L254.35 305.11L257.19 306.56L260.02 307.88L262.83 309.08L265.64 310.13L268.45 311.04L271.26 311.79L274.09 312.37L276.73 312.75L285.86 311.2L285.82 311.2L289.96 307.35L294.12 303.61L298.27 299.97L302.43 296.45L306.59 293.04L310.76 289.73L314.93 286.54L319.1 283.45L323.28 280.48L327.46 277.61L331.64 274.86L335.83 272.21L340.02 269.67L344.22 267.24L348.42 264.93L352.62 262.72L356.82 260.62L361.03 258.63L365.25 256.75L369.46 254.98L373.68 253.31L377.91 251.76L382.13 250.32L386.36 248.99L390.6 247.76L394.84 246.65L399.08 245.64L403.32 244.75L407.57 243.96L411.82 243.29L416.08 242.72L420.34 242.26L424.6 241.92L428.87 241.68L433.14 241.55L437.41 241.53L441.69 241.62L445.97 241.82Z" id="bwtjP66r4" fill="white" fill-opacity="1" filter="url(#shadow353800)"></path></g><use xlink:href="#ansAlkxMb" opacity="0.13" fill="#ffffff" fill-opacity="1"></use><g><use xlink:href="#ansAlkxMb" opacity="0.13" fill-opacity="0" stroke="#ffffff" stroke-width="1" stroke-opacity="1"></use></g></g></g></g></svg>